<?xml version="1.0" encoding="UTF-8" standalone="no"?>
<!-- Created with Inkscape (http://www.inkscape.org/) -->

<svg
   xmlns:dc="http://purl.org/dc/elements/1.1/"
   xmlns:cc="http://creativecommons.org/ns#"
   xmlns:rdf="http://www.w3.org/1999/02/22-rdf-syntax-ns#"
   xmlns:svg="http://www.w3.org/2000/svg"
   xmlns="http://www.w3.org/2000/svg"
   xmlns:sodipodi="http://sodipodi.sourceforge.net/DTD/sodipodi-0.dtd"
   xmlns:inkscape="http://www.inkscape.org/namespaces/inkscape"
   width="100"
   height="100"
   id="svg4636"
   version="1.1"
   inkscape:version="0.48.1 "
   sodipodi:docname="module_proto_i.svg"
   inkscape:export-filename="C:\Users\Christoph Bastuck\Desktop\claycb\module_proto_i.png"
   inkscape:export-xdpi="90"
   inkscape:export-ydpi="90">
  <defs
     id="defs4638" />
  <sodipodi:namedview
     id="base"
     pagecolor="#ffffff"
     bordercolor="#666666"
     borderopacity="1.0"
     inkscape:pageopacity="0.0"
     inkscape:pageshadow="2"
     inkscape:zoom="3.959798"
     inkscape:cx="119.03592"
     inkscape:cy="-2.638249"
     inkscape:document-units="px"
     inkscape:current-layer="layer1"
     showgrid="false"
     inkscape:window-width="1920"
     inkscape:window-height="1028"
     inkscape:window-x="1272"
     inkscape:window-y="-8"
     inkscape:window-maximized="1" />
  <metadata
     id="metadata4641">
    <rdf:RDF>
      <cc:Work
         rdf:about="">
        <dc:format>image/svg+xml</dc:format>
        <dc:type
           rdf:resource="http://purl.org/dc/dcmitype/StillImage" />
        <dc:title></dc:title>
      </cc:Work>
    </rdf:RDF>
  </metadata>
  <g
     inkscape:label="Ebene 1"
     inkscape:groupmode="layer"
     id="layer1"
     transform="translate(0,-952.3622)">
    <g
       transform="matrix(1.5,0,0,1.5,-751.45041,-400.01767)"
       id="g3258-1-5">
      <path
         sodipodi:nodetypes="ssscs"
         inkscape:connector-curvature="0"
         id="path5370-4-7-5-2"
         d="m 551.15669,950.1198 c -8.65384,7.9393 -22.60814,7.8685 -31.16781,-0.1582 -8.55966,-8.0268 -8.48334,-20.9698 0.1705,-28.9093 8.25543,-7.5739 21.4303,-7.9076 30.64344,-0.3024 9.08403,8.4873 9.0077,21.4304 0.35387,29.3699 z"
         style="fill:none;stroke:#000000;stroke-width:0.90350568;stroke-linecap:round;stroke-linejoin:bevel;stroke-miterlimit:4;stroke-opacity:1;stroke-dasharray:none" />
      <path
         sodipodi:nodetypes="ssscs"
         inkscape:connector-curvature="0"
         id="path5370-4-8-4-6-3"
         d="m 557.68725,955.0059 c -12.27943,10.8759 -32.08003,10.7789 -44.22585,-0.2168 -12.14582,-10.9956 -12.03752,-28.7261 0.24193,-39.6021 11.71413,-10.37536 30.40873,-10.83249 43.4818,-0.4143 12.88988,11.6266 12.78156,29.357 0.50212,40.2332 z"
         style="fill:none;stroke:#000000;stroke-width:1;stroke-linecap:round;stroke-linejoin:bevel;stroke-miterlimit:4;stroke-opacity:1;stroke-dasharray:none" />
      <path
         inkscape:connector-curvature="0"
         id="path5435-0-0-0"
         d="m 531.77502,961.0086 c -12.39181,-1.7078 -21.95721,-9.5628 -24.80904,-20.3728 -0.62853,-2.3825 -0.8414,-6.6452 -0.45322,-9.0753 1.53892,-9.6342 8.68998,-17.6433 18.75833,-21.0091 3.40707,-1.139 6.16486,-1.5732 9.97474,-1.5705 6.9307,0 12.84597,1.8134 18.61396,5.691 4.45947,2.998 8.39746,8.531 9.97037,14.0089 2.97479,10.3597 -1.2048,20.8417 -10.9463,27.452 -3.13306,2.126 -8.26659,4.0385 -12.61135,4.6983 -2.08834,0.3172 -6.7739,0.4151 -8.49749,0.1775 z m 6.14874,-3.4234 c 4.23626,-0.4017 8.38952,-1.8452 11.71319,-4.0711 2.29687,-1.5381 5.64676,-5.0691 6.88698,-7.2591 4.66782,-8.2426 3.66034,-17.6031 -2.69252,-25.0162 -2.70379,-3.155 -7.18326,-5.8126 -12.00302,-7.1212 -2.15989,-0.5864 -2.79108,-0.6502 -6.46288,-0.6538 -3.41769,0 -4.36382,0.077 -5.90916,0.5039 -4.34839,1.2003 -7.78196,3.0201 -10.60315,5.6196 -6.83972,6.3024 -8.97407,15.2952 -5.66425,23.8655 1.29434,3.3516 4.51786,7.3547 7.83175,9.7261 3.11081,2.2259 7.91572,4.0077 11.83146,4.3874 1.11904,0.1085 2.14233,0.2117 2.27398,0.2293 0.13165,0.018 1.39058,-0.077 2.79762,-0.2104 l 0,0 z"
         style="fill:#000402;fill-opacity:1;stroke:#ffffff;stroke-width:0.23936588;stroke-linecap:round;stroke-linejoin:bevel;stroke-miterlimit:4;stroke-opacity:1;stroke-dasharray:none" />
    </g>
    <g
       id="g4092-6-8"
       transform="matrix(1.5,0,0,1.5,-814.06986,-269.82126)">
      <path
         sodipodi:open="true"
         sodipodi:end="11.7209"
         sodipodi:start="5.5032575"
         transform="translate(-6,312.2677)"
         d="m 547.33514,595.05092 c 2.57303,2.25777 2.55008,5.89841 -0.0512,8.13161 -2.60134,2.23319 -6.796,2.21328 -9.36903,-0.0445 -2.57303,-2.25776 -2.55008,-5.8984 0.0512,-8.1316 2.48158,-2.13039 6.44194,-2.22425 9.05378,-0.21459"
         sodipodi:ry="5.75"
         sodipodi:rx="6.625"
         sodipodi:cy="599.09448"
         sodipodi:cx="542.625"
         id="path3290-9-1"
         style="fill:none;stroke:#ffffff;stroke-width:1.79999995;stroke-linecap:round;stroke-linejoin:bevel;stroke-miterlimit:4;stroke-opacity:1;stroke-dasharray:none"
         sodipodi:type="arc" />
      <path
         transform="translate(0,308.2677)"
         inkscape:connector-curvature="0"
         id="path4064-5-8"
         d="m 535.76987,607.79383 c -2.2446,-0.26922 -4.1436,-1.79772 -4.63188,-3.72819 -0.63818,-2.52311 1.18093,-4.94221 4.19735,-5.58173 1.04334,-0.2212 1.74634,-0.21817 2.72156,0.0118 2.50666,0.591 4.16948,2.4351 4.16948,4.62405 0,2.87349 -3.05141,5.08252 -6.45651,4.67411 l 0,0 z"
         style="fill:#ffffff;fill-opacity:1;stroke:#000000;stroke-width:1.625;stroke-linecap:round;stroke-linejoin:bevel;stroke-miterlimit:4;stroke-opacity:1;stroke-dasharray:none" />
    </g>
    <rect
       style="fill:#ffffff;fill-opacity:1;stroke:#000000;stroke-width:1.5;stroke-linecap:round;stroke-linejoin:round;stroke-miterlimit:4;stroke-opacity:1;stroke-dasharray:none;stroke-dashoffset:0"
       id="rect4377-3-8"
       width="59.57386"
       height="15.003788"
       x="22.200171"
       y="995.3363"
       rx="15.76899"
       ry="4.0352402" />
    <path
       style="fill:none;stroke:#000000;stroke-width:1.5;stroke-linecap:butt;stroke-linejoin:miter;stroke-miterlimit:4;stroke-opacity:1;stroke-dasharray:none"
       d="m 22.358754,1002.8629 -3.0052,0"
       id="path4540"
       inkscape:connector-curvature="0" />
    <path
       style="fill:none;stroke:#000000;stroke-width:1.5;stroke-linecap:butt;stroke-linejoin:miter;stroke-miterlimit:4;stroke-opacity:1;stroke-dasharray:none"
       d="m 85.026097,1002.8628 -3.0052,0"
       id="path4540-0"
       inkscape:connector-curvature="0" />
  </g>
</svg>
